<mxfile host="app.diagrams.net" agent="Mozilla/5.0 (X11; Linux x86_64; rv:136.0) Gecko/20100101 Firefox/136.0" version="26.2.14">
  <diagram name="Seite-1" id="HTuUUcakCANRxWy9C_65">
    <mxGraphModel dx="1665" dy="799" grid="1" gridSize="10" guides="1" tooltips="1" connect="1" arrows="1" fold="1" page="1" pageScale="1" pageWidth="827" pageHeight="1169" math="0" shadow="0">
      <root>
        <mxCell id="0" />
        <mxCell id="1" parent="0" />
        <mxCell id="hoJs8_YLjyTwWvel4_tg-3" value="" style="edgeStyle=orthogonalEdgeStyle;rounded=0;orthogonalLoop=1;jettySize=auto;html=1;" parent="1" source="hoJs8_YLjyTwWvel4_tg-1" target="hoJs8_YLjyTwWvel4_tg-2" edge="1">
          <mxGeometry relative="1" as="geometry" />
        </mxCell>
        <mxCell id="hoJs8_YLjyTwWvel4_tg-1" value="Event: ApplicationReady" style="strokeWidth=2;html=1;shape=mxgraph.flowchart.start_1;whiteSpace=wrap;" parent="1" vertex="1">
          <mxGeometry x="320" y="30" width="120" height="60" as="geometry" />
        </mxCell>
        <mxCell id="hoJs8_YLjyTwWvel4_tg-5" value="" style="edgeStyle=orthogonalEdgeStyle;rounded=0;orthogonalLoop=1;jettySize=auto;html=1;" parent="1" source="hoJs8_YLjyTwWvel4_tg-2" target="hoJs8_YLjyTwWvel4_tg-4" edge="1">
          <mxGeometry relative="1" as="geometry" />
        </mxCell>
        <mxCell id="hoJs8_YLjyTwWvel4_tg-2" value="Get Payload, Length and Destination IP from Application" style="rounded=1;whiteSpace=wrap;html=1;" parent="1" vertex="1">
          <mxGeometry x="320" y="120" width="120" height="60" as="geometry" />
        </mxCell>
        <mxCell id="hoJs8_YLjyTwWvel4_tg-7" style="edgeStyle=orthogonalEdgeStyle;rounded=0;orthogonalLoop=1;jettySize=auto;html=1;exitX=1;exitY=0.5;exitDx=0;exitDy=0;exitPerimeter=0;entryX=0.5;entryY=0;entryDx=0;entryDy=0;" parent="1" source="hoJs8_YLjyTwWvel4_tg-4" target="hoJs8_YLjyTwWvel4_tg-6" edge="1">
          <mxGeometry relative="1" as="geometry" />
        </mxCell>
        <mxCell id="hoJs8_YLjyTwWvel4_tg-8" value="No" style="edgeLabel;html=1;align=center;verticalAlign=middle;resizable=0;points=[];" parent="hoJs8_YLjyTwWvel4_tg-7" vertex="1" connectable="0">
          <mxGeometry x="-0.781" relative="1" as="geometry">
            <mxPoint as="offset" />
          </mxGeometry>
        </mxCell>
        <mxCell id="hoJs8_YLjyTwWvel4_tg-52" style="edgeStyle=orthogonalEdgeStyle;rounded=0;orthogonalLoop=1;jettySize=auto;html=1;exitX=0;exitY=0.5;exitDx=0;exitDy=0;exitPerimeter=0;" parent="1" source="hoJs8_YLjyTwWvel4_tg-4" target="hoJs8_YLjyTwWvel4_tg-51" edge="1">
          <mxGeometry relative="1" as="geometry" />
        </mxCell>
        <mxCell id="hoJs8_YLjyTwWvel4_tg-53" value="Yes" style="edgeLabel;html=1;align=center;verticalAlign=middle;resizable=0;points=[];" parent="hoJs8_YLjyTwWvel4_tg-52" vertex="1" connectable="0">
          <mxGeometry x="-0.5333" y="-1" relative="1" as="geometry">
            <mxPoint as="offset" />
          </mxGeometry>
        </mxCell>
        <mxCell id="hoJs8_YLjyTwWvel4_tg-4" value="Use Tree?" style="strokeWidth=2;html=1;shape=mxgraph.flowchart.decision;whiteSpace=wrap;" parent="1" vertex="1">
          <mxGeometry x="330" y="210" width="100" height="100" as="geometry" />
        </mxCell>
        <mxCell id="hoJs8_YLjyTwWvel4_tg-10" value="" style="edgeStyle=orthogonalEdgeStyle;rounded=0;orthogonalLoop=1;jettySize=auto;html=1;" parent="1" source="hoJs8_YLjyTwWvel4_tg-6" target="hoJs8_YLjyTwWvel4_tg-9" edge="1">
          <mxGeometry relative="1" as="geometry" />
        </mxCell>
        <mxCell id="hoJs8_YLjyTwWvel4_tg-6" value="Generate &quot;IP&quot; header/packet&lt;div&gt;and append payload&lt;/div&gt;" style="rounded=1;whiteSpace=wrap;html=1;" parent="1" vertex="1">
          <mxGeometry x="520" y="320" width="120" height="60" as="geometry" />
        </mxCell>
        <mxCell id="hoJs8_YLjyTwWvel4_tg-29" value="" style="edgeStyle=orthogonalEdgeStyle;rounded=0;orthogonalLoop=1;jettySize=auto;html=1;" parent="1" source="hoJs8_YLjyTwWvel4_tg-9" target="hoJs8_YLjyTwWvel4_tg-28" edge="1">
          <mxGeometry relative="1" as="geometry" />
        </mxCell>
        <mxCell id="hoJs8_YLjyTwWvel4_tg-9" value="Send &quot;IP&quot; packet to physical layer&lt;div&gt;with destination node0 (=central router)&lt;/div&gt;" style="rounded=1;whiteSpace=wrap;html=1;" parent="1" vertex="1">
          <mxGeometry x="520" y="420" width="120" height="90" as="geometry" />
        </mxCell>
        <mxCell id="hoJs8_YLjyTwWvel4_tg-11" value="" style="shape=link;html=1;rounded=0;exitX=1;exitY=0.5;exitDx=0;exitDy=0;entryX=0;entryY=0.5;entryDx=0;entryDy=0;" parent="1" source="hoJs8_YLjyTwWvel4_tg-9" target="hoJs8_YLjyTwWvel4_tg-13" edge="1">
          <mxGeometry width="100" relative="1" as="geometry">
            <mxPoint x="540" y="600" as="sourcePoint" />
            <mxPoint x="580" y="600" as="targetPoint" />
          </mxGeometry>
        </mxCell>
        <mxCell id="hoJs8_YLjyTwWvel4_tg-12" value="node0 -&amp;gt;" style="edgeLabel;html=1;align=center;verticalAlign=middle;resizable=0;points=[];" parent="hoJs8_YLjyTwWvel4_tg-11" vertex="1" connectable="0">
          <mxGeometry x="-0.0889" y="-1" relative="1" as="geometry">
            <mxPoint x="-3" y="4" as="offset" />
          </mxGeometry>
        </mxCell>
        <mxCell id="hoJs8_YLjyTwWvel4_tg-15" value="" style="edgeStyle=orthogonalEdgeStyle;rounded=0;orthogonalLoop=1;jettySize=auto;html=1;" parent="1" source="hoJs8_YLjyTwWvel4_tg-13" target="hoJs8_YLjyTwWvel4_tg-14" edge="1">
          <mxGeometry relative="1" as="geometry" />
        </mxCell>
        <mxCell id="hoJs8_YLjyTwWvel4_tg-13" value="node0 (=central router) receives the packet from its physical layer" style="rounded=1;whiteSpace=wrap;html=1;" parent="1" vertex="1">
          <mxGeometry x="800" y="320" width="120" height="70" as="geometry" />
        </mxCell>
        <mxCell id="hoJs8_YLjyTwWvel4_tg-27" value="" style="edgeStyle=orthogonalEdgeStyle;rounded=0;orthogonalLoop=1;jettySize=auto;html=1;" parent="1" source="hoJs8_YLjyTwWvel4_tg-14" target="hoJs8_YLjyTwWvel4_tg-26" edge="1">
          <mxGeometry relative="1" as="geometry" />
        </mxCell>
        <mxCell id="hoJs8_YLjyTwWvel4_tg-14" value="It unpacks/reads the &quot;IP&quot; header and determines the destination.&lt;div&gt;It forwards the original package as-is to the link[x] that is connected to the node[x] with the ip[x]&lt;/div&gt;" style="rounded=1;whiteSpace=wrap;html=1;" parent="1" vertex="1">
          <mxGeometry x="800" y="430" width="120" height="140" as="geometry" />
        </mxCell>
        <mxCell id="hoJs8_YLjyTwWvel4_tg-16" value="Addressing scheme:&lt;div&gt;&amp;nbsp;1. &quot;IPs&quot; are numbers: 0, 1, 2, ...&lt;br&gt;&lt;div&gt;&lt;div&gt;&amp;nbsp;2. node number = ip address&lt;/div&gt;&lt;/div&gt;&lt;div&gt;&amp;nbsp; &amp;nbsp; &amp;nbsp; -&amp;gt; node0 = ip 0; node10 = ip 10&lt;/div&gt;&lt;div&gt;&amp;nbsp;3. Each node is connected to a link of the central router. The link number equals the nodes IP address&lt;/div&gt;&lt;/div&gt;&lt;div&gt;&amp;nbsp; &amp;nbsp; &amp;nbsp; -&amp;gt; node1 is connected to link[1]&lt;/div&gt;&lt;div&gt;&amp;nbsp; &amp;nbsp; &amp;nbsp; -&amp;gt; node10 is connected to link[10]&lt;/div&gt;&lt;div&gt;&amp;nbsp; &amp;nbsp; &amp;nbsp; -&amp;gt; node0 (router itself) is reached via loopback link[0]&lt;/div&gt;&lt;div&gt;&amp;nbsp;4. If the application expects and/or provides a real IP, only consider the least significant 16 bit (subnet 192.168.0.0)&lt;/div&gt;" style="text;html=1;align=left;verticalAlign=top;whiteSpace=wrap;rounded=0;" parent="1" vertex="1">
          <mxGeometry x="560" y="40" width="330" height="180" as="geometry" />
        </mxCell>
        <mxCell id="hoJs8_YLjyTwWvel4_tg-17" value="" style="shape=link;html=1;rounded=0;exitX=0;exitY=0.5;exitDx=0;exitDy=0;entryX=1;entryY=0.5;entryDx=0;entryDy=0;exitPerimeter=0;" parent="1" source="hoJs8_YLjyTwWvel4_tg-19" target="hoJs8_YLjyTwWvel4_tg-14" edge="1">
          <mxGeometry width="100" relative="1" as="geometry">
            <mxPoint x="970" y="410" as="sourcePoint" />
            <mxPoint x="970" y="500" as="targetPoint" />
          </mxGeometry>
        </mxCell>
        <mxCell id="hoJs8_YLjyTwWvel4_tg-18" value="nodeX -&amp;gt;" style="edgeLabel;html=1;align=center;verticalAlign=middle;resizable=0;points=[];" parent="hoJs8_YLjyTwWvel4_tg-17" vertex="1" connectable="0">
          <mxGeometry x="-0.0889" y="-1" relative="1" as="geometry">
            <mxPoint x="-91" y="140" as="offset" />
          </mxGeometry>
        </mxCell>
        <mxCell id="hoJs8_YLjyTwWvel4_tg-22" value="" style="edgeStyle=orthogonalEdgeStyle;rounded=0;orthogonalLoop=1;jettySize=auto;html=1;" parent="1" source="hoJs8_YLjyTwWvel4_tg-19" target="hoJs8_YLjyTwWvel4_tg-20" edge="1">
          <mxGeometry relative="1" as="geometry" />
        </mxCell>
        <mxCell id="hoJs8_YLjyTwWvel4_tg-19" value="Event:&lt;div&gt;PhysicalReady&lt;/div&gt;" style="strokeWidth=2;html=1;shape=mxgraph.flowchart.start_1;whiteSpace=wrap;" parent="1" vertex="1">
          <mxGeometry x="1200" y="30" width="120" height="60" as="geometry" />
        </mxCell>
        <mxCell id="hoJs8_YLjyTwWvel4_tg-23" value="" style="edgeStyle=orthogonalEdgeStyle;rounded=0;orthogonalLoop=1;jettySize=auto;html=1;" parent="1" source="hoJs8_YLjyTwWvel4_tg-20" target="hoJs8_YLjyTwWvel4_tg-21" edge="1">
          <mxGeometry relative="1" as="geometry" />
        </mxCell>
        <mxCell id="hoJs8_YLjyTwWvel4_tg-20" value="Get Packet, Length and Destination from Physical" style="rounded=1;whiteSpace=wrap;html=1;" parent="1" vertex="1">
          <mxGeometry x="1200" y="120" width="120" height="60" as="geometry" />
        </mxCell>
        <mxCell id="hoJs8_YLjyTwWvel4_tg-24" style="edgeStyle=orthogonalEdgeStyle;rounded=0;orthogonalLoop=1;jettySize=auto;html=1;exitX=0;exitY=0.5;exitDx=0;exitDy=0;exitPerimeter=0;entryX=0.5;entryY=0;entryDx=0;entryDy=0;" parent="1" source="hoJs8_YLjyTwWvel4_tg-21" target="hoJs8_YLjyTwWvel4_tg-13" edge="1">
          <mxGeometry relative="1" as="geometry" />
        </mxCell>
        <mxCell id="hoJs8_YLjyTwWvel4_tg-25" value="Yes" style="edgeLabel;html=1;align=center;verticalAlign=middle;resizable=0;points=[];" parent="hoJs8_YLjyTwWvel4_tg-24" vertex="1" connectable="0">
          <mxGeometry x="-0.6634" relative="1" as="geometry">
            <mxPoint as="offset" />
          </mxGeometry>
        </mxCell>
        <mxCell id="hoJs8_YLjyTwWvel4_tg-31" value="" style="edgeStyle=orthogonalEdgeStyle;rounded=0;orthogonalLoop=1;jettySize=auto;html=1;entryX=0.5;entryY=0;entryDx=0;entryDy=0;" parent="1" source="hoJs8_YLjyTwWvel4_tg-21" target="hoJs8_YLjyTwWvel4_tg-34" edge="1">
          <mxGeometry relative="1" as="geometry">
            <mxPoint x="1260" y="340" as="targetPoint" />
          </mxGeometry>
        </mxCell>
        <mxCell id="hoJs8_YLjyTwWvel4_tg-32" value="No" style="edgeLabel;html=1;align=center;verticalAlign=middle;resizable=0;points=[];" parent="hoJs8_YLjyTwWvel4_tg-31" vertex="1" connectable="0">
          <mxGeometry x="0.32" relative="1" as="geometry">
            <mxPoint as="offset" />
          </mxGeometry>
        </mxCell>
        <mxCell id="hoJs8_YLjyTwWvel4_tg-21" value="Node is a&lt;div&gt;router?&lt;/div&gt;" style="strokeWidth=2;html=1;shape=mxgraph.flowchart.decision;whiteSpace=wrap;" parent="1" vertex="1">
          <mxGeometry x="1210" y="210" width="100" height="100" as="geometry" />
        </mxCell>
        <mxCell id="hoJs8_YLjyTwWvel4_tg-26" value="" style="shape=umlDestroy;whiteSpace=wrap;html=1;strokeWidth=3;targetShapes=umlLifeline;" parent="1" vertex="1">
          <mxGeometry x="845" y="610" width="30" height="30" as="geometry" />
        </mxCell>
        <mxCell id="hoJs8_YLjyTwWvel4_tg-28" value="" style="shape=umlDestroy;whiteSpace=wrap;html=1;strokeWidth=3;targetShapes=umlLifeline;" parent="1" vertex="1">
          <mxGeometry x="565" y="554.5" width="30" height="30" as="geometry" />
        </mxCell>
        <mxCell id="hoJs8_YLjyTwWvel4_tg-41" value="" style="edgeStyle=orthogonalEdgeStyle;rounded=0;orthogonalLoop=1;jettySize=auto;html=1;exitX=0.5;exitY=1;exitDx=0;exitDy=0;" parent="1" source="hoJs8_YLjyTwWvel4_tg-34" target="hoJs8_YLjyTwWvel4_tg-40" edge="1">
          <mxGeometry relative="1" as="geometry" />
        </mxCell>
        <mxCell id="hoJs8_YLjyTwWvel4_tg-34" value="Unpack &quot;IP&quot; packet/header" style="rounded=1;whiteSpace=wrap;html=1;" parent="1" vertex="1">
          <mxGeometry x="1200" y="340" width="120" height="60" as="geometry" />
        </mxCell>
        <mxCell id="hoJs8_YLjyTwWvel4_tg-43" value="" style="edgeStyle=orthogonalEdgeStyle;rounded=0;orthogonalLoop=1;jettySize=auto;html=1;" parent="1" source="hoJs8_YLjyTwWvel4_tg-40" target="hoJs8_YLjyTwWvel4_tg-42" edge="1">
          <mxGeometry relative="1" as="geometry" />
        </mxCell>
        <mxCell id="hoJs8_YLjyTwWvel4_tg-44" value="No" style="edgeLabel;html=1;align=center;verticalAlign=middle;resizable=0;points=[];" parent="hoJs8_YLjyTwWvel4_tg-43" vertex="1" connectable="0">
          <mxGeometry x="-0.3" y="2" relative="1" as="geometry">
            <mxPoint as="offset" />
          </mxGeometry>
        </mxCell>
        <mxCell id="hoJs8_YLjyTwWvel4_tg-64" value="" style="edgeStyle=orthogonalEdgeStyle;rounded=0;orthogonalLoop=1;jettySize=auto;html=1;" parent="1" source="hoJs8_YLjyTwWvel4_tg-40" target="hoJs8_YLjyTwWvel4_tg-63" edge="1">
          <mxGeometry relative="1" as="geometry" />
        </mxCell>
        <mxCell id="hoJs8_YLjyTwWvel4_tg-65" value="Yes" style="edgeLabel;html=1;align=center;verticalAlign=middle;resizable=0;points=[];" parent="hoJs8_YLjyTwWvel4_tg-64" vertex="1" connectable="0">
          <mxGeometry x="-0.35" relative="1" as="geometry">
            <mxPoint as="offset" />
          </mxGeometry>
        </mxCell>
        <mxCell id="hoJs8_YLjyTwWvel4_tg-40" value="Packet is&lt;div&gt;destined for this node?&lt;/div&gt;" style="strokeWidth=2;html=1;shape=mxgraph.flowchart.decision;whiteSpace=wrap;" parent="1" vertex="1">
          <mxGeometry x="1210" y="430" width="100" height="100" as="geometry" />
        </mxCell>
        <mxCell id="hoJs8_YLjyTwWvel4_tg-42" value="" style="shape=umlDestroy;whiteSpace=wrap;html=1;strokeWidth=3;targetShapes=umlLifeline;" parent="1" vertex="1">
          <mxGeometry x="1350" y="465" width="30" height="30" as="geometry" />
        </mxCell>
        <mxCell id="hoJs8_YLjyTwWvel4_tg-49" value="" style="edgeStyle=orthogonalEdgeStyle;rounded=0;orthogonalLoop=1;jettySize=auto;html=1;" parent="1" source="hoJs8_YLjyTwWvel4_tg-45" target="hoJs8_YLjyTwWvel4_tg-48" edge="1">
          <mxGeometry relative="1" as="geometry" />
        </mxCell>
        <mxCell id="hoJs8_YLjyTwWvel4_tg-45" value="Deliver Payload to application" style="rounded=1;whiteSpace=wrap;html=1;" parent="1" vertex="1">
          <mxGeometry x="1020" y="680" width="120" height="60" as="geometry" />
        </mxCell>
        <mxCell id="hoJs8_YLjyTwWvel4_tg-48" value="" style="shape=umlDestroy;whiteSpace=wrap;html=1;strokeWidth=3;targetShapes=umlLifeline;" parent="1" vertex="1">
          <mxGeometry x="1065" y="770" width="30" height="30" as="geometry" />
        </mxCell>
        <mxCell id="hoJs8_YLjyTwWvel4_tg-55" value="" style="edgeStyle=orthogonalEdgeStyle;rounded=0;orthogonalLoop=1;jettySize=auto;html=1;" parent="1" source="hoJs8_YLjyTwWvel4_tg-51" target="hoJs8_YLjyTwWvel4_tg-54" edge="1">
          <mxGeometry relative="1" as="geometry" />
        </mxCell>
        <mxCell id="hoJs8_YLjyTwWvel4_tg-51" value="Generate Tree header and append payload.&lt;div&gt;Destination address = provided IP&lt;/div&gt;" style="rounded=1;whiteSpace=wrap;html=1;" parent="1" vertex="1">
          <mxGeometry x="120" y="320" width="120" height="90" as="geometry" />
        </mxCell>
        <mxCell id="hoJs8_YLjyTwWvel4_tg-68" style="edgeStyle=orthogonalEdgeStyle;rounded=0;orthogonalLoop=1;jettySize=auto;html=1;exitX=1;exitY=0.5;exitDx=0;exitDy=0;entryX=-0.008;entryY=0.667;entryDx=0;entryDy=0;entryPerimeter=0;" parent="1" source="hoJs8_YLjyTwWvel4_tg-54" target="hoJs8_YLjyTwWvel4_tg-9" edge="1">
          <mxGeometry relative="1" as="geometry" />
        </mxCell>
        <mxCell id="hoJs8_YLjyTwWvel4_tg-54" value="Generate &quot;IP&quot; header/packet to first hop and prepend it" style="rounded=1;whiteSpace=wrap;html=1;" parent="1" vertex="1">
          <mxGeometry x="120" y="450" width="120" height="60" as="geometry" />
        </mxCell>
        <mxCell id="hoJs8_YLjyTwWvel4_tg-66" style="edgeStyle=orthogonalEdgeStyle;rounded=0;orthogonalLoop=1;jettySize=auto;html=1;exitX=0;exitY=0.5;exitDx=0;exitDy=0;exitPerimeter=0;entryX=0.5;entryY=0;entryDx=0;entryDy=0;" parent="1" source="hoJs8_YLjyTwWvel4_tg-63" target="hoJs8_YLjyTwWvel4_tg-45" edge="1">
          <mxGeometry relative="1" as="geometry" />
        </mxCell>
        <mxCell id="hoJs8_YLjyTwWvel4_tg-67" value="No" style="edgeLabel;html=1;align=center;verticalAlign=middle;resizable=0;points=[];" parent="hoJs8_YLjyTwWvel4_tg-66" vertex="1" connectable="0">
          <mxGeometry x="-0.5895" y="-2" relative="1" as="geometry">
            <mxPoint as="offset" />
          </mxGeometry>
        </mxCell>
        <mxCell id="hoJs8_YLjyTwWvel4_tg-70" style="edgeStyle=orthogonalEdgeStyle;rounded=0;orthogonalLoop=1;jettySize=auto;html=1;exitX=1;exitY=0.5;exitDx=0;exitDy=0;exitPerimeter=0;entryX=0.5;entryY=0;entryDx=0;entryDy=0;" parent="1" source="hoJs8_YLjyTwWvel4_tg-63" target="hoJs8_YLjyTwWvel4_tg-69" edge="1">
          <mxGeometry relative="1" as="geometry" />
        </mxCell>
        <mxCell id="2e_USpRxNHBIw4PkJXdu-1" value="Yes" style="edgeLabel;html=1;align=center;verticalAlign=middle;resizable=0;points=[];" parent="hoJs8_YLjyTwWvel4_tg-70" vertex="1" connectable="0">
          <mxGeometry x="-0.6941" relative="1" as="geometry">
            <mxPoint as="offset" />
          </mxGeometry>
        </mxCell>
        <mxCell id="hoJs8_YLjyTwWvel4_tg-63" value="Use Tree?" style="strokeWidth=2;html=1;shape=mxgraph.flowchart.decision;whiteSpace=wrap;" parent="1" vertex="1">
          <mxGeometry x="1210" y="570" width="100" height="100" as="geometry" />
        </mxCell>
        <mxCell id="hoJs8_YLjyTwWvel4_tg-72" value="" style="edgeStyle=orthogonalEdgeStyle;rounded=0;orthogonalLoop=1;jettySize=auto;html=1;" parent="1" source="hoJs8_YLjyTwWvel4_tg-69" target="hoJs8_YLjyTwWvel4_tg-71" edge="1">
          <mxGeometry relative="1" as="geometry" />
        </mxCell>
        <mxCell id="hoJs8_YLjyTwWvel4_tg-69" value="Unpack Tree packet/header" style="rounded=1;whiteSpace=wrap;html=1;" parent="1" vertex="1">
          <mxGeometry x="1360" y="680" width="120" height="60" as="geometry" />
        </mxCell>
        <mxCell id="hoJs8_YLjyTwWvel4_tg-74" value="" style="edgeStyle=orthogonalEdgeStyle;rounded=0;orthogonalLoop=1;jettySize=auto;html=1;" parent="1" source="hoJs8_YLjyTwWvel4_tg-71" target="hoJs8_YLjyTwWvel4_tg-73" edge="1">
          <mxGeometry relative="1" as="geometry" />
        </mxCell>
        <mxCell id="hoJs8_YLjyTwWvel4_tg-75" value="Yes" style="edgeLabel;html=1;align=center;verticalAlign=middle;resizable=0;points=[];" parent="hoJs8_YLjyTwWvel4_tg-74" vertex="1" connectable="0">
          <mxGeometry x="-0.04" y="1" relative="1" as="geometry">
            <mxPoint as="offset" />
          </mxGeometry>
        </mxCell>
        <mxCell id="hoJs8_YLjyTwWvel4_tg-78" value="" style="edgeStyle=orthogonalEdgeStyle;rounded=0;orthogonalLoop=1;jettySize=auto;html=1;" parent="1" source="hoJs8_YLjyTwWvel4_tg-71" target="hoJs8_YLjyTwWvel4_tg-77" edge="1">
          <mxGeometry relative="1" as="geometry" />
        </mxCell>
        <mxCell id="2e_USpRxNHBIw4PkJXdu-2" value="No" style="edgeLabel;html=1;align=center;verticalAlign=middle;resizable=0;points=[];" parent="hoJs8_YLjyTwWvel4_tg-78" vertex="1" connectable="0">
          <mxGeometry x="0.32" relative="1" as="geometry">
            <mxPoint as="offset" />
          </mxGeometry>
        </mxCell>
        <mxCell id="hoJs8_YLjyTwWvel4_tg-71" value="Packet is&lt;div&gt;destined for this node?&lt;/div&gt;" style="strokeWidth=2;html=1;shape=mxgraph.flowchart.decision;whiteSpace=wrap;" parent="1" vertex="1">
          <mxGeometry x="1370" y="770" width="100" height="100" as="geometry" />
        </mxCell>
        <mxCell id="Xpsv-R13jGEEFc6t5P-M-3" value="" style="edgeStyle=orthogonalEdgeStyle;rounded=0;orthogonalLoop=1;jettySize=auto;html=1;" edge="1" parent="1" source="hoJs8_YLjyTwWvel4_tg-73" target="Xpsv-R13jGEEFc6t5P-M-1">
          <mxGeometry relative="1" as="geometry" />
        </mxCell>
        <mxCell id="hoJs8_YLjyTwWvel4_tg-73" value="Deliver Payload to application" style="rounded=1;whiteSpace=wrap;html=1;" parent="1" vertex="1">
          <mxGeometry x="1200" y="790" width="120" height="60" as="geometry" />
        </mxCell>
        <mxCell id="hoJs8_YLjyTwWvel4_tg-80" value="" style="edgeStyle=orthogonalEdgeStyle;rounded=0;orthogonalLoop=1;jettySize=auto;html=1;" parent="1" source="hoJs8_YLjyTwWvel4_tg-77" target="hoJs8_YLjyTwWvel4_tg-79" edge="1">
          <mxGeometry relative="1" as="geometry" />
        </mxCell>
        <mxCell id="hoJs8_YLjyTwWvel4_tg-77" value="Repack Tree packet/header with payload.&lt;div&gt;Generate &quot;IP&quot; header/packet to next hop (first determin next hop) and prepend it&lt;/div&gt;" style="rounded=1;whiteSpace=wrap;html=1;" parent="1" vertex="1">
          <mxGeometry x="1360" y="900" width="120" height="130" as="geometry" />
        </mxCell>
        <mxCell id="hoJs8_YLjyTwWvel4_tg-84" value="" style="edgeStyle=orthogonalEdgeStyle;rounded=0;orthogonalLoop=1;jettySize=auto;html=1;" parent="1" source="hoJs8_YLjyTwWvel4_tg-79" target="hoJs8_YLjyTwWvel4_tg-83" edge="1">
          <mxGeometry relative="1" as="geometry" />
        </mxCell>
        <mxCell id="hoJs8_YLjyTwWvel4_tg-79" value="Send &quot;IP&quot; packet to physical layer&lt;div&gt;with destination node0 (=central router)&lt;/div&gt;" style="rounded=1;whiteSpace=wrap;html=1;" parent="1" vertex="1">
          <mxGeometry x="1360" y="1070" width="120" height="90" as="geometry" />
        </mxCell>
        <mxCell id="hoJs8_YLjyTwWvel4_tg-81" value="" style="shape=link;html=1;rounded=0;exitX=0;exitY=0.5;exitDx=0;exitDy=0;entryX=0;entryY=0.5;entryDx=0;entryDy=0;" parent="1" source="hoJs8_YLjyTwWvel4_tg-79" target="hoJs8_YLjyTwWvel4_tg-13" edge="1">
          <mxGeometry width="100" relative="1" as="geometry">
            <mxPoint x="650" y="475" as="sourcePoint" />
            <mxPoint x="810" y="365" as="targetPoint" />
            <Array as="points">
              <mxPoint x="720" y="1115" />
              <mxPoint x="720" y="470" />
            </Array>
          </mxGeometry>
        </mxCell>
        <mxCell id="hoJs8_YLjyTwWvel4_tg-82" value="&amp;lt;- node0" style="edgeLabel;html=1;align=center;verticalAlign=middle;resizable=0;points=[];" parent="hoJs8_YLjyTwWvel4_tg-81" vertex="1" connectable="0">
          <mxGeometry x="-0.0889" y="-1" relative="1" as="geometry">
            <mxPoint x="389" y="9" as="offset" />
          </mxGeometry>
        </mxCell>
        <mxCell id="hoJs8_YLjyTwWvel4_tg-83" value="" style="shape=umlDestroy;whiteSpace=wrap;html=1;strokeWidth=3;targetShapes=umlLifeline;" parent="1" vertex="1">
          <mxGeometry x="1405" y="1190" width="30" height="30" as="geometry" />
        </mxCell>
        <mxCell id="Xpsv-R13jGEEFc6t5P-M-2" style="edgeStyle=orthogonalEdgeStyle;rounded=0;orthogonalLoop=1;jettySize=auto;html=1;exitX=1;exitY=0.5;exitDx=0;exitDy=0;exitPerimeter=0;entryX=0;entryY=0.5;entryDx=0;entryDy=0;" edge="1" parent="1" source="Xpsv-R13jGEEFc6t5P-M-1" target="hoJs8_YLjyTwWvel4_tg-77">
          <mxGeometry relative="1" as="geometry" />
        </mxCell>
        <mxCell id="Xpsv-R13jGEEFc6t5P-M-4" value="Yes" style="edgeLabel;html=1;align=center;verticalAlign=middle;resizable=0;points=[];" vertex="1" connectable="0" parent="Xpsv-R13jGEEFc6t5P-M-2">
          <mxGeometry x="-0.5077" y="1" relative="1" as="geometry">
            <mxPoint as="offset" />
          </mxGeometry>
        </mxCell>
        <mxCell id="Xpsv-R13jGEEFc6t5P-M-5" style="edgeStyle=orthogonalEdgeStyle;rounded=0;orthogonalLoop=1;jettySize=auto;html=1;exitX=0;exitY=0.5;exitDx=0;exitDy=0;exitPerimeter=0;" edge="1" parent="1" source="Xpsv-R13jGEEFc6t5P-M-1" target="hoJs8_YLjyTwWvel4_tg-48">
          <mxGeometry relative="1" as="geometry" />
        </mxCell>
        <mxCell id="Xpsv-R13jGEEFc6t5P-M-6" value="No" style="edgeLabel;html=1;align=center;verticalAlign=middle;resizable=0;points=[];" vertex="1" connectable="0" parent="Xpsv-R13jGEEFc6t5P-M-5">
          <mxGeometry x="-0.7286" y="-3" relative="1" as="geometry">
            <mxPoint as="offset" />
          </mxGeometry>
        </mxCell>
        <mxCell id="Xpsv-R13jGEEFc6t5P-M-1" value="&lt;div&gt;Packet&lt;/div&gt;&lt;div&gt;requires for-warding and destination is reachable?&lt;/div&gt;" style="strokeWidth=2;html=1;shape=mxgraph.flowchart.decision;whiteSpace=wrap;" vertex="1" parent="1">
          <mxGeometry x="1210" y="915" width="100" height="100" as="geometry" />
        </mxCell>
      </root>
    </mxGraphModel>
  </diagram>
</mxfile>
